<?xml version="1.0" encoding="UTF-8"?>
<svg version="1.1" xmlns="http://www.w3.org/2000/svg" width="512" height="512">
<path d="M0 0 C15.18 0 30.36 0 46 0 C46 2.97 46 5.94 46 9 C48.0728125 8.9071875 48.0728125 8.9071875 50.1875 8.8125 C54.3189196 8.62751106 56.75265548 9.37543388 60 12 C63.19781908 20.89182605 62.21624099 31.64157028 62 41 C62.68707031 41.10957031 63.37414062 41.21914063 64.08203125 41.33203125 C65.43361328 41.56986328 65.43361328 41.56986328 66.8125 41.8125 C67.70582031 41.96332031 68.59914063 42.11414062 69.51953125 42.26953125 C72.2846663 43.08383086 73.29876046 43.70046521 75 46 C78.55063178 54.33032841 78.39998558 63.44976537 78.27001953 72.3449707 C78.19215563 77.36367606 78.19215563 77.36367606 80.34521484 81.69970703 C82.15058015 83.2230242 82.15058015 83.2230242 85 85 C85.33 85.66 85.66 86.32 86 87 C87.155 87.33 88.31 87.66 89.5 88 C90.655 88.33 91.81 88.66 93 89 C94.43509221 91.87018441 94.11158506 94.33543723 94.09765625 97.5390625 C94.09443359 98.84101562 94.09121094 100.14296875 94.08789062 101.484375 C94.07953466 102.86458399 94.07106971 104.24479232 94.0625 105.625 C94.05748501 107.01301926 94.0529221 108.40104022 94.04882812 109.7890625 C94.03700976 113.19275132 94.02053434 116.59635439 94 120 C94.74765625 119.97679688 95.4953125 119.95359375 96.265625 119.9296875 C97.25046875 119.91164063 98.2353125 119.89359375 99.25 119.875 C100.22453125 119.85179688 101.1990625 119.82859375 102.203125 119.8046875 C105.06627213 120.00462794 106.65155238 120.37332298 109 122 C110.09911549 125.29734646 110.1139456 127.72958745 110.09765625 131.19921875 C110.09443359 132.40771484 110.09121094 133.61621094 110.08789062 134.86132812 C110.07951172 136.12396484 110.07113281 137.38660156 110.0625 138.6875 C110.05798828 139.96173828 110.05347656 141.23597656 110.04882812 142.54882812 C110.03702873 145.69926564 110.02056597 148.84960949 110 152 C110.60835693 151.98839844 111.21671387 151.97679687 111.84350586 151.96484375 C112.64667236 151.95582031 113.44983887 151.94679687 114.27734375 151.9375 C115.07132568 151.92589844 115.86530762 151.91429687 116.68334961 151.90234375 C119.69766851 152.02940957 122.22228485 152.86042455 125 154 C125.8632601 157.71888866 126.11721556 161.14296488 126.09765625 164.95703125 C126.09443359 166.06884766 126.09121094 167.18066406 126.08789062 168.32617188 C126.07951172 169.47666016 126.07113281 170.62714844 126.0625 171.8125 C126.05798828 172.98232422 126.05347656 174.15214844 126.04882812 175.35742188 C126.0370693 178.23833358 126.02063426 181.11914044 126 184 C127.37285156 184.07347656 127.37285156 184.07347656 128.7734375 184.1484375 C130.55621094 184.26058594 130.55621094 184.26058594 132.375 184.375 C134.15003906 184.47941406 134.15003906 184.47941406 135.9609375 184.5859375 C139 185 139 185 141 187 C142.34894778 193.25266991 142.11389483 199.56849403 142.0625 205.9375 C142.05798828 207.00291016 142.05347656 208.06832031 142.04882812 209.16601562 C142.03711787 211.77740291 142.02071724 214.38867124 142 217 C143.02951782 216.96737061 143.02951782 216.96737061 144.07983398 216.93408203 C144.98032471 216.91716309 145.88081543 216.90024414 146.80859375 216.8828125 C148.14748657 216.85018311 148.14748657 216.85018311 149.51342773 216.81689453 C152 217 152 217 155.0625 218.875 C160.18437918 227.13609546 158.09873036 239.54382555 158 249 C158.68707031 249.10957031 159.37414062 249.21914062 160.08203125 249.33203125 C160.98308594 249.49058594 161.88414062 249.64914063 162.8125 249.8125 C164.15248047 250.03873047 164.15248047 250.03873047 165.51953125 250.26953125 C168.29194802 251.08597524 169.30021578 251.68870804 171 254 C174.96618382 263.5482203 174.30338436 273.8871879 174 284 C175.39798828 284.40605469 175.39798828 284.40605469 176.82421875 284.8203125 C181.22687446 286.45573934 182.33536717 288.19338167 185 292 C185.35858516 293.32676508 185.7018576 294.65835921 186 296 C186.99 296.33 187.98 296.66 189 297 C190.43509221 299.87018441 190.11158506 302.33543723 190.09765625 305.5390625 C190.09443359 306.84101563 190.09121094 308.14296875 190.08789062 309.484375 C190.07953466 310.86458399 190.07106971 312.24479232 190.0625 313.625 C190.05748501 315.01301926 190.0529221 316.40104022 190.04882812 317.7890625 C190.03700976 321.19275132 190.02053434 324.59635439 190 328 C190.83144531 327.98839844 191.66289062 327.97679687 192.51953125 327.96484375 C194.14955078 327.95130859 194.14955078 327.95130859 195.8125 327.9375 C196.89144531 327.92589844 197.97039062 327.91429687 199.08203125 327.90234375 C202 328 202 328 205 329 C206.11911712 332.35735137 206.11365586 334.88205386 206.09765625 338.41796875 C206.09443359 339.67158203 206.09121094 340.92519531 206.08789062 342.21679688 C206.07951172 343.52712891 206.07113281 344.83746094 206.0625 346.1875 C206.05748317 347.52278481 206.05292059 348.85807141 206.04882812 350.19335938 C206.03702695 353.46228473 206.02056297 356.73111991 206 360 C206.68634521 359.99129883 207.37269043 359.98259766 208.07983398 359.97363281 C209.43057007 359.96348145 209.43057007 359.96348145 210.80859375 359.953125 C211.70118896 359.94442383 212.59378418 359.93572266 213.51342773 359.92675781 C216.45527881 360.01341027 218.51080571 360.3940682 221 362 C222.20391388 365.32450375 222.11483931 368.57278114 222.09765625 372.078125 C222.09443359 373.23828125 222.09121094 374.3984375 222.08789062 375.59375 C222.07951172 376.8003125 222.07113281 378.006875 222.0625 379.25 C222.05798828 380.47203125 222.05347656 381.6940625 222.04882812 382.953125 C222.03704815 385.96879946 222.02059853 388.98437498 222 392 C222.91523438 392.04898437 223.83046875 392.09796875 224.7734375 392.1484375 C226.55621094 392.26058594 226.55621094 392.26058594 228.375 392.375 C229.55835938 392.44460938 230.74171875 392.51421875 231.9609375 392.5859375 C235 393 235 393 237 395 C237.89114854 398.97448735 238.11949977 402.7730419 238.09765625 406.8359375 C238.09443359 407.89941406 238.09121094 408.96289062 238.08789062 410.05859375 C238.07951172 411.15300781 238.07113281 412.24742187 238.0625 413.375 C238.05798828 414.49261719 238.05347656 415.61023438 238.04882812 416.76171875 C238.03709244 419.50786804 238.02067363 422.25390586 238 425 C238.7636084 424.98477295 239.5272168 424.9695459 240.31396484 424.95385742 C241.80984131 424.93609253 241.80984131 424.93609253 243.3359375 424.91796875 C244.3264209 424.9027417 245.3169043 424.88751465 246.33740234 424.87182617 C249 425 249 425 251.625 426.3125 C256.04977497 434.9609238 254.10061263 447.46415829 254 457 C254.59167969 457.01417969 255.18335938 457.02835937 255.79296875 457.04296875 C259.85835254 457.28835081 262.45454107 457.65183472 265.9375 459.875 C274.16920909 472.3472865 270 503.85471981 270 512 C201.36 512 132.72 512 62 512 C62 504.08 62 496.16 62 488 C58.04 488 54.08 488 50 488 C49.01 487.67 48.02 487.34 47 487 C43.73061338 477.19184013 46 466.33870828 46 456 C-6.8 456 -59.6 456 -114 456 C-114 460.62 -114 465.24 -114 470 C-114.515625 474.10546875 -114.515625 474.10546875 -115.25 477.1875 C-115.48203125 478.23292969 -115.7140625 479.27835937 -115.953125 480.35546875 C-117.22459387 483.56735094 -117.89397635 484.48160946 -121 486 C-123.97 486.33 -126.94 486.66 -130 487 C-130 495.25 -130 503.5 -130 512 C-151.12 512 -172.24 512 -194 512 C-194.020625 505.255625 -194.04125 498.51125 -194.0625 491.5625 C-194.071604 489.45174072 -194.08070801 487.34098145 -194.09008789 485.16625977 C-194.09301243 483.46630924 -194.09555972 481.766358 -194.09765625 480.06640625 C-194.10277222 479.20559448 -194.10788818 478.34478271 -194.11315918 477.45788574 C-194.11529799 462.38567326 -194.11529799 462.38567326 -190.9375 458.4375 C-190.298125 457.963125 -189.65875 457.48875 -189 457 C-189.639375 456.71125 -190.27875 456.4225 -190.9375 456.125 C-193 455 -193 455 -194 453 C-194.09992542 451.48037644 -194.13831893 449.95648331 -194.14526367 448.43359375 C-194.15164352 447.48500488 -194.15802338 446.53641602 -194.16459656 445.55908203 C-194.16570938 444.52895996 -194.1668222 443.49883789 -194.16796875 442.4375 C-194.17129715 441.37644043 -194.17462555 440.31538086 -194.17805481 439.22216797 C-194.1831272 436.9692427 -194.18546304 434.71630988 -194.18530273 432.46337891 C-194.18747344 429.0418627 -194.20558205 425.62067719 -194.22460938 422.19921875 C-194.22754651 420.0078136 -194.22952916 417.81640692 -194.23046875 415.625 C-194.23765427 414.61107178 -194.24483978 413.59714355 -194.25224304 412.55249023 C-194.23199205 406.14270362 -193.50434987 400.2318713 -192 394 C-182.45911961 391.53219591 -173.15186346 391.77337738 -163.375 391.875 C-161.68620323 391.88505043 -159.99740066 391.89417263 -158.30859375 391.90234375 C-154.20558406 391.92419261 -150.10285718 391.95860846 -146 392 C-146.01047363 391.12375977 -146.02094727 390.24751953 -146.03173828 389.34472656 C-146.06620926 386.03464019 -146.09108521 382.72474975 -146.10986328 379.41455078 C-146.1198044 377.99297032 -146.13336208 376.57140964 -146.15087891 375.14990234 C-146.42917338 351.95323979 -146.42917338 351.95323979 -142.53564453 347.21972656 C-138.83412971 344.27969984 -134.52465179 344.97369388 -130 345 C-130.01571045 343.86570557 -130.01571045 343.86570557 -130.03173828 342.70849609 C-130.07345416 339.26403155 -130.09937583 335.8196203 -130.125 332.375 C-130.14175781 331.18519531 -130.15851563 329.99539063 -130.17578125 328.76953125 C-130.18544922 327.03896484 -130.18544922 327.03896484 -130.1953125 325.2734375 C-130.21102295 323.68668213 -130.21102295 323.68668213 -130.22705078 322.06787109 C-129.98270857 318.76636112 -129.16882977 316.08587237 -128 313 C-124.71674571 312.15270857 -121.67906532 311.94430415 -118.30859375 311.96875 C-117.50091553 311.97326172 -116.6932373 311.97777344 -115.86108398 311.98242188 C-115.24692627 311.98822266 -114.63276855 311.99402344 -114 312 C-114.01571045 311.14881592 -114.0314209 310.29763184 -114.04760742 309.4206543 C-114.09927151 306.20941493 -114.13660717 302.99839003 -114.16479492 299.78686523 C-114.17971942 298.40691074 -114.20006661 297.02700228 -114.22631836 295.6472168 C-114.60004595 275.47325478 -114.60004595 275.47325478 -109.18823242 268.7487793 C-106.70204276 266.76188021 -105.38726338 266.4345449 -102.25 266.25 C-101.45078125 266.19328125 -100.6515625 266.1365625 -99.828125 266.078125 C-99.22484375 266.05234375 -98.6215625 266.0265625 -98 266 C-98.01047363 265.2793335 -98.02094727 264.55866699 -98.03173828 263.81616211 C-98.07353715 260.52331079 -98.09940188 257.2305155 -98.125 253.9375 C-98.14175781 252.80376953 -98.15851563 251.67003906 -98.17578125 250.50195312 C-98.24149178 239.2325972 -98.24149178 239.2325972 -96 234 C-91.29701775 231.87904722 -87.08359428 231.94520677 -82 232 C-82.00523682 231.16750732 -82.01047363 230.33501465 -82.01586914 229.47729492 C-82.03292225 226.38550065 -82.04545565 223.29373036 -82.05493164 220.2019043 C-82.06242729 218.20685232 -82.07513345 216.21182214 -82.08789062 214.21679688 C-82.09111328 212.96318359 -82.09433594 211.70957031 -82.09765625 210.41796875 C-82.10289307 209.26063232 -82.10812988 208.1032959 -82.11352539 206.91088867 C-82 204 -82 204 -81 201 C-79.9275 200.731875 -78.855 200.46375 -77.75 200.1875 C-72.95714935 198.66976396 -71.94250067 196.95135804 -69 193 C-68.34 192.67 -67.68 192.34 -67 192 C-66.96241577 190.88927124 -66.96241577 190.88927124 -66.92407227 189.75610352 C-66.8070828 186.35810351 -66.68482853 182.96031183 -66.5625 179.5625 C-66.52318359 178.39783203 -66.48386719 177.23316406 -66.44335938 176.03320312 C-65.79960777 158.4538323 -65.79960777 158.4538323 -63.625 154.5 C-60.64743613 152.79853493 -58.7299892 152.66465511 -55.3359375 152.40625 C-53.84006104 152.28733398 -53.84006104 152.28733398 -52.31396484 152.16601562 C-51.55035645 152.11123047 -50.78674805 152.05644531 -50 152 C-50.01047363 151.20303711 -50.02094727 150.40607422 -50.03173828 149.58496094 C-50.07331772 145.97333938 -50.09933261 142.36176821 -50.125 138.75 C-50.14175781 137.49574219 -50.15851563 136.24148437 -50.17578125 134.94921875 C-50.18222656 133.74394531 -50.18867188 132.53867188 -50.1953125 131.296875 C-50.20578613 130.18666992 -50.21625977 129.07646484 -50.22705078 127.93261719 C-50.00153856 125.01987228 -49.67379277 123.37682745 -48 121 C-44.85069107 119.95023036 -42.61185544 119.89868405 -39.3125 119.9375 C-38.31863281 119.94652344 -37.32476562 119.95554687 -36.30078125 119.96484375 C-35.54152344 119.97644531 -34.78226563 119.98804687 -34 120 C-34.01047363 119.12375977 -34.02094727 118.24751953 -34.03173828 117.34472656 C-34.06620926 114.03464019 -34.09108521 110.72474975 -34.10986328 107.41455078 C-34.1198044 105.99297032 -34.13336208 104.57140964 -34.15087891 103.14990234 C-34.42761101 80.08346787 -34.42761101 80.08346787 -30.61376953 75.23925781 C-27.79505584 73.07469039 -25.23164231 72.88144849 -21.8125 72.9375 C-20.554375 72.958125 -19.29625 72.97875 -18 73 C-18.01047363 72.20827393 -18.02094727 71.41654785 -18.03173828 70.60083008 C-18.07337846 67.00475249 -18.09935193 63.40872572 -18.125 59.8125 C-18.14175781 58.56662109 -18.15851563 57.32074219 -18.17578125 56.03710938 C-18.18222656 54.83505859 -18.18867188 53.63300781 -18.1953125 52.39453125 C-18.20578613 51.28956299 -18.21625977 50.18459473 -18.22705078 49.04614258 C-17.99154306 45.88654059 -17.57446529 43.75112189 -16 41 C-13.04351266 39.6695807 -9.95589799 39.89531713 -6.75 39.9375 C-5.85796875 39.94652344 -4.9659375 39.95554688 -4.046875 39.96484375 C-3.37140625 39.97644531 -2.6959375 39.98804688 -2 40 C-2.01047363 39.1435791 -2.02094727 38.2871582 -2.03173828 37.40478516 C-2.06613634 34.1805117 -2.09105115 30.95633282 -2.10986328 27.73193359 C-2.11982603 26.34518324 -2.13340118 24.95845335 -2.15087891 23.57177734 C-2.17556213 21.56082052 -2.18658015 19.55014491 -2.1953125 17.5390625 C-2.20578613 16.33459473 -2.21625977 15.13012695 -2.22705078 13.88916016 C-1.95377859 9.20827199 -0.91956076 4.59780379 0 0 Z M-50 288 C-50.09087891 290.53300781 -50.09087891 290.53300781 -50.18359375 293.1171875 C-50.26806664 295.36979777 -50.35271118 297.6224016 -50.4375 299.875 C-50.47681641 300.98359375 -50.51613281 302.0921875 -50.55664062 303.234375 C-50.68116683 306.4912143 -50.83036431 309.74520954 -51 313 C-51.05043457 313.97227539 -51.10086914 314.94455078 -51.15283203 315.94628906 C-51.21712402 316.8328418 -51.28141602 317.71939453 -51.34765625 318.6328125 C-51.40058838 319.4077002 -51.45352051 320.18258789 -51.50805664 320.98095703 C-52.11628216 323.47724737 -52.99036963 324.43320049 -55 326 C-57.4453125 326.4765625 -57.4453125 326.4765625 -60.125 326.625 C-63.36911814 326.56533788 -63.36911814 326.56533788 -66 328 C-66.14615679 329.96294592 -66.22739691 331.93079466 -66.28125 333.8984375 C-66.31863281 335.09984375 -66.35601562 336.30125 -66.39453125 337.5390625 C-66.42933594 338.80492187 -66.46414062 340.07078125 -66.5 341.375 C-66.56880287 343.86209638 -66.64153519 346.34908807 -66.71875 348.8359375 C-66.76418945 350.49955322 -66.76418945 350.49955322 -66.81054688 352.19677734 C-67 355 -67 355 -68 358 C-71.00778521 359.00259507 -73.53820647 359.30314642 -76.6875 359.5625 C-77.68136719 359.64628906 -78.67523438 359.73007812 -79.69921875 359.81640625 C-80.45847656 359.87699219 -81.21773437 359.93757813 -82 360 C-82.02505615 360.91700684 -82.0501123 361.83401367 -82.07592773 362.77880859 C-82.17186288 366.22681775 -82.27103983 369.67470367 -82.37231445 373.12255859 C-82.4152523 374.60624631 -82.45695012 376.08997051 -82.49731445 377.57373047 C-83.12162253 400.43419669 -83.12162253 400.43419669 -85.4375 404.5625 C-89.40418767 406.78771504 -93.51504715 406.82881859 -98 407 C-98 407.33 -98 407.66 -98 408 C-61.04 408 -24.08 408 14 408 C14 402.72 14 397.44 14 392 C10.94010417 391.54427083 7.88020833 391.08854167 4.8203125 390.6328125 C2 390 2 390 0 388 C-0.39428711 386.20727539 -0.39428711 386.20727539 -0.58984375 384.03515625 C-0.69981689 382.82883545 -0.69981689 382.82883545 -0.81201172 381.59814453 C-1.12924806 377.21369107 -1.36596631 372.82890023 -1.5625 368.4375 C-1.60568359 367.52419922 -1.64886719 366.61089844 -1.69335938 365.66992188 C-1.79811757 363.44672009 -1.90029017 361.22343293 -2 359 C-3.15628906 358.81824219 -3.15628906 358.81824219 -4.3359375 358.6328125 C-5.33882813 358.46523438 -6.34171875 358.29765625 -7.375 358.125 C-8.37273437 357.96257812 -9.37046875 357.80015625 -10.3984375 357.6328125 C-13 357 -13 357 -15 355 C-17.5160584 345.64289391 -17.56637016 335.63114704 -18 326 C-18.61488281 325.82984375 -19.22976562 325.6596875 -19.86328125 325.484375 C-26.3922341 323.52673044 -26.3922341 323.52673044 -28.875 321.375 C-32.46953952 313.78652767 -33.49402704 306.79000425 -33.6875 298.4375 C-33.72166016 297.42880859 -33.75582031 296.42011719 -33.79101562 295.38085938 C-33.87262432 292.92094023 -33.93800673 290.46049162 -34 288 C-39.28 288 -44.56 288 -50 288 Z " fill="#4C9898" transform="translate(218,0)"/>
<path d="M0 0 C0 4.95 0 9.9 0 15 C-4.95 15 -9.9 15 -15 15 C-13.53218884 5.70386266 -13.53218884 5.70386266 -11.0625 2.4375 C-7.14333714 -0.29403775 -5.01714126 0 0 0 Z " fill="#659999" transform="translate(120,266)"/>
<path d="M0 0 C10.72151899 1.81012658 10.72151899 1.81012658 13 5 C13.97234204 8.30180318 14.42535885 11.59635625 15 15 C10.05 15 5.1 15 0 15 C0 10.05 0 5.1 0 0 Z " fill="#55AAAA" transform="translate(376,249)"/>
<path d="M0 0 C10.72151899 1.81012658 10.72151899 1.81012658 13 5 C13.97234204 8.30180318 14.42535885 11.59635625 15 15 C10.05 15 5.1 15 0 15 C0 10.05 0 5.1 0 0 Z " fill="#558080" transform="translate(280,41)"/>
<path d="M0 0 C4.95 0 9.9 0 15 0 C15 4.95 15 9.9 15 15 C6.76633032 13.66808285 6.76633032 13.66808285 3.5625 10.875 C1.60023465 7.26443176 0.81849475 4.02426587 0 0 Z " fill="#40BDBD" transform="translate(185,311)"/>
<path d="M0 0 C4.95 0 9.9 0 15 0 C14.125 7.875 14.125 7.875 13 9 C10.65012738 9.23527773 8.29443961 9.41386417 5.9375 9.5625 C4.00197266 9.68818359 4.00197266 9.68818359 2.02734375 9.81640625 C1.02832031 9.87699219 0.02929688 9.93757812 -1 10 C-0.67 6.7 -0.34 3.4 0 0 Z " fill="#649999" transform="translate(218,0)"/>
<path d="M0 0 C5.28 0 10.56 0 16 0 C16 2.64 16 5.28 16 8 C10.72 8 5.44 8 0 8 C0 5.36 0 2.72 0 0 Z " fill="#000000" transform="translate(168,280)"/>
<path d="M0 0 C5.68731799 1.32263209 7.7532041 3.36172014 11 8 C11.33 9.32 11.66 10.64 12 12 C8.04 12 4.08 12 0 12 C0 8.04 0 4.08 0 0 Z " fill="#808080" transform="translate(392,284)"/>
<path d="M0 0 C0 2.64 0 5.28 0 8 C-2.64 8 -5.28 8 -8 8 C-3.67567568 0 -3.67567568 0 0 0 Z " fill="#FFFFFF" transform="translate(152,192)"/>
<path d="M0 0 C4.03384128 2.07143201 5.92856799 3.96615872 8 8 C5.36 8 2.72 8 0 8 C0 5.36 0 2.72 0 0 Z " fill="#00FFFF" transform="translate(296,80)"/>
</svg>
